HIERARCHY
ROOT Hips
{
	OFFSET 0.000000 0.000000 0.000000 
	CHANNELS 6 Xposition Yposition Zposition Yrotation Zrotation Xrotation 
	JOINT Lumbar
	{
		OFFSET 0.000000 0.000000 0.000000 
		CHANNELS 3 Zrotation Xrotation Yrotation
		JOINT Neck
		{
			OFFSET 0.000000 0.445665 0.000000 
			CHANNELS 3 Zrotation Xrotation Yrotation
			End Site
			{
				OFFSET 0.000000 0.227535 0.000000 
			}
		}
		JOINT RightShoulder
		{
			OFFSET 0.019635 0.377685 0.194865 
			CHANNELS 3 Zrotation Xrotation Yrotation
			JOINT RightElbow
			{
				OFFSET 0.000000 -0.243375 0.000000 
				CHANNELS 2 Zrotation Yrotation
				JOINT RightWrist
				{
					OFFSET 0.000000 -0.264825 0.000000 
					CHANNELS 2 Zrotation Xrotation
					End Site
					{
						OFFSET 0.006600 -0.176220 0.000990 
					}
				}
			}
		}
		JOINT LeftShoulder
		{
			OFFSET 0.019635 0.377685 -0.194865 
			CHANNELS 3 Zrotation Xrotation Yrotation
			JOINT LeftElbow
			{
				OFFSET 0.000000 -0.243375 0.000000 
				CHANNELS 2 Zrotation Yrotation
				JOINT LeftWrist
				{
					OFFSET 0.000000 -0.264825 0.000000 
					CHANNELS 2 Zrotation Xrotation
					End Site
					{
						OFFSET 0.006600 -0.176220 -0.000990 
					}
				}
			}
		}
	}
	JOINT RightHip
	{
		OFFSET 0.052140 -0.069960 0.075570 
		CHANNELS 3 Zrotation Xrotation Yrotation
		JOINT RightKnee
		{
			OFFSET 0.000000 -0.402270 0.000000 
			CHANNELS 1 Zrotation
			JOINT RightAnkle
			{
				OFFSET 0.000000 -0.404085 0.000000 
				CHANNELS 3 Zrotation Xrotation Yrotation
				End Site
				{
					OFFSET 0.204105 -0.089430 0.008415 
				}
			}
		}
	}
	JOINT LeftHip
	{
		OFFSET 0.052140 -0.069960 -0.075570 
		CHANNELS 3 Zrotation Xrotation Yrotation
		JOINT LeftKnee
		{
			OFFSET 0.000000 -0.402270 0.000000 
			CHANNELS 1 Zrotation
			JOINT LeftAnkle
			{
				OFFSET 0.000000 -0.404085 0.000000 
				CHANNELS 3 Zrotation Xrotation Yrotation
				End Site
				{
					OFFSET 0.204105 -0.089430 -0.008415 
				}
			}
		}
	}
}
MOTION
Frames: 35
Frame Time: 0.02
0 0.95578 -0 171.17446 0 -5.47451 7.69584 7.27112 -0.08822 -19.21744 -1.56326 -2.79137 13.92535 -10.80097 12.97466 9.86975 81.28943 -1.61558 -3.70875 13.17819 15.9193 -20.99215 10.44092 -80.01255 -3.95321 2.77243 -6.40249 6.53609 0.27242 -5.51946 -11.86145 -2.48718 -8.22137 -9.90892 6.99198 17.81022 0.07873 -6.08205 3.21084 7.206
-1e-05 0.95565 0.00022 171.09869 0 -5.45434 7.63729 7.23093 -0.07068 -19.25501 -1.58465 -2.76789 13.94019 -10.79734 12.91473 9.8935 81.27707 -1.62217 -3.72118 13.08317 15.9938 -20.61244 10.30751 -80.0567 -3.97509 2.67277 -6.32491 6.49795 0.41447 -5.66177 -11.78045 -2.50351 -8.26301 -9.91523 6.95047 17.85952 0.06505 -6.0479 3.21243 7.22439
-2e-05 0.95552 0.00043 171.02327 0 -5.43434 7.57909 7.19113 -0.05337 -19.2925 -1.6061 -2.74472 13.95475 -10.79351 12.85403 9.91669 81.26483 -1.62866 -3.73337 12.98894 16.06815 -20.23571 10.1753 -80.10035 -3.99671 2.57389 -6.24786 6.46002 0.55568 -5.80328 -11.7 -2.5197 -8.30448 -9.92152 6.9092 17.90977 0.0512 -6.0137 3.21392 7.24152
-4e-05 0.95539 0.00065 170.94879 0 -5.41483 7.52175 7.15239 -0.03667 -19.32937 -1.62779 -2.72258 13.96786 -10.78913 12.78979 9.93807 81.25301 -1.63479 -3.74485 12.89577 16.14242 -19.866 10.04589 -80.14213 -4.01755 2.47674 -6.1722 6.42265 0.69449 -5.94287 -11.62095 -2.53545 -8.34549 -9.92774 6.86856 17.96262 0.03663 -5.97923 3.21521 7.25532
-1e-05 0.95524 0.00086 170.86961 0 -5.39273 7.4599 7.10787 -0.01656 -19.36875 -1.64794 -2.69502 13.98808 -10.78804 12.74446 9.96928 81.23902 -1.64284 -3.76023 12.79551 16.21683 -19.45767 9.9008 -80.19345 -4.0426 2.3699 -6.08924 6.38239 0.8455 -6.09249 -11.53448 -2.55351 -8.38869 -9.93429 6.82468 17.99968 0.02596 -5.94646 3.21779 7.28858
-9e-05 0.95513 0.00108 170.80027 0 -5.37614 7.40763 7.07573 -0.00377 -19.4033 -1.67151 -2.6789 13.99363 -10.77974 12.65907 9.9795 81.22961 -1.64681 -3.76725 12.71135 16.29109 -19.13244 9.78959 -80.22481 -4.05867 2.28404 -6.02176 6.34824 0.97093 -6.22086 -11.46378 -2.56668 -8.42738 -9.94018 6.78764 18.07147 0.007 -5.90996 3.21746 7.27944
-0.00043 0.95509 0.00132 170.75886 0 -5.37489 7.38141 7.07724 -0.01097 -19.42106 -1.70386 -2.69554 13.95438 -10.75256 12.45758 9.93156 81.23329 -1.63931 -3.75146 12.66302 16.36546 -19.02758 9.76779 -80.19772 -4.04991 2.25277 -5.99706 6.33117 1.02336 -6.29101 -11.43637 -2.56596 -8.45291 -9.9439 6.76967 18.2328 -0.03568 -5.86326 3.21051 7.15922
-0.00087 0.95509 0.00156 170.7272 0 -5.3792 7.36488 7.09136 -0.02559 -19.43489 -1.7398 -2.72358 13.90136 -10.71786 12.21648 9.86249 81.24151 -1.62772 -3.7272 12.63275 16.43978 -19.00814 9.78118 -80.15111 -4.03219 2.24339 -5.98798 6.32023 1.05047 -6.33967 -11.42491 -2.56037 -8.47402 -9.94704 6.75855 18.43022 -0.08662 -5.81276 3.20043 6.9953
-0.00126 0.95508 0.00179 170.69053 0 -5.38087 7.34416 7.10006 -0.03704 -19.45245 -1.77457 -2.74563 13.85701 -10.68592 11.99678 9.80305 81.24739 -1.61812 -3.70657 12.59946 16.51376 -18.95552 9.78084 -80.1155 -4.01841 2.22598 -5.97169 6.30631 1.09077 -6.39795 -11.40623 -2.55728 -8.49767 -9.95065 6.74412 18.6159 -0.13332 -5.76385 3.19079 6.84689
-0.00166 0.95506 0.00203 170.65631 0 -5.38294 7.32261 7.10744 -0.04776 -19.46064 -1.80744 -2.77091 13.80128 -10.65689 11.7626 9.74322 81.25448 -1.60797 -3.68673 12.54323 16.58883 -18.87935 9.76998 -80.07072 -4.0047 2.19999 -5.95581 6.29312 1.12394 -6.45693 -11.38732 -2.55301 -8.51917 -9.95334 6.73045 18.78322 -0.18208 -5.7154 3.18503 6.71549
-0.00207 0.95505 0.00227 170.61928 0 -5.38558 7.30502 7.12055 -0.06159 -19.48888 -1.84505 -2.79241 13.76751 -10.61986 11.54936 9.67955 81.26009 -1.59802 -3.66339 12.54038 16.66215 -18.87221 9.7906 -80.04062 -3.98934 2.1977 -5.94286 6.27996 1.16594 -6.50922 -11.37282 -2.54998 -8.54401 -9.95786 6.71691 18.99568 -0.22847 -5.66525 3.17077 6.53999
-0.00246 0.95505 0.00252 170.57236 0 -5.38779 7.29687 7.14663 -0.0832 -19.56314 -1.89601 -2.7994 13.78708 -10.56272 11.40135 9.60708 81.26043 -1.58927 -3.63113 12.67133 16.72761 -19.03822 9.87962 -80.05442 -3.96666 2.25022 -5.93363 6.26466 1.23872 -6.5496 -11.36541 -2.55202 -8.57977 -9.96728 6.70141 19.3385 -0.26677 -5.61005 3.13094 6.23852
-0.00286 0.95505 0.00277 170.5222 0 -5.3905 7.29241 7.17808 -0.10721 -19.66125 -1.95177 -2.80301 13.83284 -10.49705 11.27584 9.532 81.25897 -1.58089 -3.59589 12.85855 16.79278 -19.27066 10.00126 -80.08415 -3.94379 2.32698 -5.92692 6.24927 1.32118 -6.58378 -11.36206 -2.55539 -8.6189 -9.97865 6.68591 19.72285 -0.30233 -5.55351 3.08316 5.89689
-0.00325 0.95504 0.00302 170.47339 0 -5.39342 7.28545 7.2068 -0.12986 -19.75315 -2.00412 -2.80824 13.8716 -10.43611 11.14197 9.46049 81.25861 -1.57258 -3.56291 13.0242 16.85892 -19.46969 10.11409 -80.10725 -3.92396 2.39588 -5.91945 6.2344 1.39917 -6.61991 -11.35769 -2.55785 -8.65615 -9.98933 6.67086 20.07858 -0.33884 -5.49843 3.04092 5.58345
-0.00365 0.95504 0.00327 170.42553 0 -5.39475 7.28152 7.23684 -0.15513 -19.81873 -2.06026 -2.81108 13.88257 -10.37424 11.00031 9.37863 81.25794 -1.56321 -3.52584 13.16761 16.91779 -19.68298 10.20153 -80.12623 -3.8904 2.45153 -5.91093 6.21781 1.47681 -6.65883 -11.35057 -2.56142 -8.6949 -9.99912 6.6542 20.47648 -0.37685 -5.43965 2.99054 5.22672
-0.00404 0.95504 0.00351 170.37466 0 -5.39936 7.27303 7.26568 -0.1739 -19.95317 -2.11151 -2.82098 13.9661 -10.30871 10.87888 9.31743 81.25652 -1.55609 -3.49666 13.37795 16.99643 -19.88414 10.35069 -80.15889 -3.88668 2.54109 -5.90495 6.20461 1.55751 -6.69087 -11.34972 -2.56307 -8.73113 -10.01128 6.6407 20.79623 -0.41101 -5.38827 2.95516 4.95096
-0.00441 0.95505 0.00369 170.31749 0 -5.41355 7.24246 7.28609 -0.18734 -20.20149 -2.13245 -2.82563 14.1735 -10.26548 10.82357 9.31887 81.26216 -1.55596 -3.49025 13.69577 17.09104 -20.01065 10.64987 -80.21927 -3.95688 2.71083 -5.90558 6.20161 1.64672 -6.70456 -11.36687 -2.55889 -8.76172 -10.02905 6.63682 20.88709 -0.43511 -5.35797 2.96419 4.91086
-0.00477 0.95506 0.00385 170.2572 0 -5.43084 7.20878 7.30579 -0.19193 -20.53193 -2.15172 -2.84255 14.46651 -10.21257 10.78488 9.34037 81.26606 -1.55797 -3.49188 14.09102 17.21377 -20.1271 11.01278 -80.29601 -4.05966 2.91503 -5.90858 6.20181 1.73829 -6.71179 -11.3898 -2.55279 -8.78931 -10.04917 6.63588 20.89815 -0.45548 -5.33512 2.98844 4.95346
-0.00514 0.95507 0.00402 170.19739 0 -5.44629 7.18206 7.32822 -0.19154 -20.87037 -2.18135 -2.87015 14.76595 -10.14505 10.72872 9.34956 81.26431 -1.55843 -3.48971 14.49213 17.34775 -20.26382 11.35372 -80.36698 -4.15202 3.1084 -5.91027 6.20004 1.82733 -6.72269 -11.40883 -2.54769 -8.81685 -10.06857 6.63302 20.94762 -0.47752 -5.30865 3.00507 4.9569
-0.0055 0.95508 0.00419 170.14109 0 -5.46368 7.13187 7.34057 -0.22813 -21.01634 -2.16854 -2.82764 14.87354 -10.16016 10.71606 9.37216 81.2873 -1.56123 -3.48803 14.72095 17.3762 -20.3358 11.66383 -80.42366 -4.22213 3.28268 -5.91297 6.20061 1.92302 -6.73037 -11.43327 -2.54208 -8.85033 -10.08674 6.63275 20.98992 -0.49934 -5.2831 3.02437 4.96545
-0.00589 0.95509 0.00436 170.07718 0 -5.47762 7.13001 7.37381 -0.18696 -21.58485 -2.24628 -2.93582 15.40238 -9.99761 10.61538 9.37158 81.26136 -1.55977 -3.48729 15.3275 17.63622 -20.54037 12.05596 -80.52357 -4.35099 3.50402 -5.91419 6.19685 2.00509 -6.74316 -11.44789 -2.53709 -8.87085 -10.10779 6.62761 21.02715 -0.52104 -5.25745 3.04182 4.98366
-0.00634 0.95506 0.00451 169.98974 0 -5.48232 7.26037 7.46371 0.07962 -23.27929 -2.55149 -3.44379 17.05951 -9.37557 10.27725 9.30261 81.07479 -1.54514 -3.48718 16.94662 18.48643 -21.10461 12.63456 -80.6534 -4.59521 3.85082 -5.90987 6.18216 2.05048 -6.7729 -11.43273 -2.53398 -8.85494 -10.13815 6.60961 21.07368 -0.54099 -5.22959 3.05058 5.00744
-0.00681 0.95502 0.00466 169.8955 0 -5.48319 7.43979 7.57478 0.42225 -25.39992 -2.95156 -4.10613 19.13991 -8.5698 9.8484 9.20953 80.84372 -1.52628 -3.48772 18.94429 19.57715 -21.80397 13.29934 -80.84076 -4.90532 4.24238 -5.90415 6.16259 2.08167 -6.80775 -11.40768 -2.53161 -8.82634 -10.1709 6.5863 21.11679 -0.56143 -5.20142 3.05698 5.03847
-0.00728 0.95499 0.00483 169.80631 0 -5.48516 7.59805 7.67702 0.72103 -27.33885 -3.324 -4.70575 21.03576 -7.82935 9.45422 9.12716 80.65028 -1.50997 -3.48801 20.77685 20.58492 -22.44695 13.93869 -81.05941 -5.20998 4.61142 -5.89958 6.14414 2.11844 -6.83954 -11.38791 -2.52914 -8.8044 -10.20137 6.56461 21.15896 -0.58316 -5.17345 3.06439 5.0669
-0.00774 0.95495 0.00494 169.70811 0 -5.49008 7.75152 7.77621 1.05735 -29.22991 -3.63346 -5.27184 22.90237 -7.16519 9.08695 9.04652 80.38403 -1.4912 -3.4885 22.58601 21.48034 -23.06832 14.51642 -81.04147 -5.40983 4.99312 -5.89278 6.13072 2.15936 -6.87444 -11.36499 -2.52569 -8.77852 -10.23722 6.54658 21.20955 -0.59827 -5.14543 3.07253 5.09518
-0.00821 0.95493 0.00518 169.62792 0 -5.48774 7.92652 7.88637 1.33592 -31.32101 -4.0936 -5.94751 24.92837 -6.29875 8.64358 8.9563 80.25797 -1.47637 -3.48846 24.52889 22.6691 -23.767 15.2495 -81.5231 -5.84642 5.35581 -5.89046 6.10531 2.18776 -6.90388 -11.34629 -2.5244 -8.75795 -10.26211 6.51938 21.24203 -0.62747 -5.1174 3.07845 5.12455
-0.00873 0.95497 0.00576 169.59225 0 -5.46772 8.15008 8.02519 1.41346 -33.85693 -4.97352 -6.85842 27.29781 -4.91887 7.99938 8.84552 80.53744 -1.47479 -3.48823 26.78029 24.58554 -24.64342 16.32681 -83.42526 -6.89006 5.6795 -5.899 6.05055 2.18904 -6.91962 -11.34078 -2.52946 -8.75452 -10.25848 6.47025 21.23212 -0.69422 -5.08904 3.07835 5.15366
-0.00926 0.95503 0.00648 169.57635 0 -5.44026 8.3932 8.17351 1.43344 -36.57866 -5.99712 -7.87839 29.81065 -3.34281 7.28535 8.72592 80.95771 -1.4771 -3.48715 29.14581 26.79183 -25.59215 17.56883 -85.8162 -8.17302 5.97823 -5.91233 5.98337 2.17746 -6.92937 -11.33998 -2.53658 -8.75709 -10.2432 6.41164 21.20304 -0.77542 -5.0607 3.07614 5.18358
-0.00979 0.95508 0.00716 169.5558 0 -5.41529 8.62696 8.31534 1.49613 -39.21834 -6.9369 -8.86951 32.25382 -1.85517 6.61004 8.61014 81.30917 -1.47665 -3.48549 31.43909 28.88234 -26.51129 18.7771 -87.94913 -9.36909 6.27161 -5.92478 5.92022 2.16919 -6.93997 -11.3376 -2.54237 -8.75727 -10.23181 6.35602 21.17894 -0.85074 -5.03256 3.07511 5.2136
-0.01032 0.95513 0.00774 169.51626 0 -5.39398 8.86539 8.4677 1.49598 -41.86696 -7.95686 -9.78415 34.73372 -0.35998 5.89678 8.49396 81.68126 -1.48002 -3.48792 33.83592 30.91931 -27.42694 19.81573 -90.24213 -10.48422 6.63519 -5.93209 5.86387 2.17119 -6.95804 -11.33261 -2.54981 -8.75529 -10.22678 6.3059 21.17123 -0.92296 -5.00356 3.07301 5.24162
-0.01084 0.9552 0.00856 169.52161 0 -5.36326 9.09688 8.59935 1.60656 -44.53035 -8.8444 -10.875 37.16197 1.15835 5.2538 8.37727 82.04212 -1.4767 -3.48161 36.03388 33.12678 -28.35824 21.24461 -92.30883 -11.81254 6.84836 -5.95076 5.7903 2.14886 -6.95983 -11.33417 -2.55435 -8.75974 -10.2053 6.24201 21.12389 -1.00533 -4.97635 3.07276 5.27429
-0.01134 0.9553 0.00997 169.64137 0 -5.3089 9.31447 8.67788 2.08273 -47.22997 -9.31711 -12.4835 39.44055 2.73686 4.76237 8.25787 82.35745 -1.45139 -3.45168 37.69668 35.78891 -29.37301 23.72016 -93.70003 -13.76639 6.63159 -6.00409 5.67372 2.06299 -6.91127 -11.35386 -2.54979 -8.77763 -10.14473 6.14363 20.98042 -1.1098 -4.95399 3.0773 5.3161
-0.01181 0.95543 0.01162 169.8065 0 -5.24525 9.52206 8.73393 2.66278 -49.9273 -9.65444 -14.25312 41.65404 4.32222 4.35338 8.13909 82.65324 -1.4196 -3.413 39.14443 38.59997 -30.38852 26.5806 -94.83293 -15.90716 6.26762 -6.06788 5.53998 1.95303 -6.84769 -11.37988 -2.54233 -8.80236 -10.06737 6.03151 20.7962 -1.22435 -4.93347 3.08391 5.36316
-0.01228 0.95555 0.01319 169.954 0 -5.18546 9.72766 8.796 3.16561 -52.59791 -10.06162 -15.91142 43.87776 5.87505 3.94907 8.02237 82.94502 -1.39264 -3.37801 40.66281 41.30725 -31.36632 29.25821 -96.03922 -17.90104 5.9848 -6.12394 5.41315 1.85389 -6.79558 -11.40219 -2.53657 -8.82595 -9.9954 5.92496 20.62492 -1.33597 -4.91211 3.09017 5.41007
-0.01282 0.95566 0.01466 170.08967 0 -5.12682 9.96245 8.87622 3.79564 -55.3964 -10.43594 -17.73807 46.19162 7.56093 3.37367 7.89523 83.29566 -1.35835 -3.34386 42.30491 44.18219 -32.5087 31.97492 -97.45047 -20.16989 5.64229 -6.19264 5.28969 1.75499 -6.72405 -11.42789 -2.52927 -8.84156 -9.93243 5.82101 20.47629 -1.44147 -4.89065 3.09395 5.4476
